<?xml version="1.0" encoding="UTF-8"?>
<svg xmlns="http://www.w3.org/2000/svg" xmlns:xlink="http://www.w3.org/1999/xlink" width="778px" height="600px" viewBox="0 0 778 600" version="1.1">
<defs>
<filter id="alpha" filterUnits="objectBoundingBox" x="0%" y="0%" width="100%" height="100%">
  <feColorMatrix type="matrix" in="SourceGraphic" values="0 0 0 0 1 0 0 0 0 1 0 0 0 0 1 0 0 0 1 0"/>
</filter>
<mask id="mask0">
  <g filter="url(#alpha)">
<rect x="0" y="0" width="778" height="600" style="fill:rgb(0%,0%,0%);fill-opacity:0.2;stroke:none;"/>
  </g>
</mask>
<clipPath id="clip1">
  <rect x="0" y="0" width="778" height="600"/>
</clipPath>
<g id="surface5" clip-path="url(#clip1)">
<path style=" stroke:none;fill-rule:nonzero;fill:rgb(0%,0%,0%);fill-opacity:1;" d="M 173.847656 285.34375 C 170.671875 293.796875 167.429688 302.59375 167.21875 312.03125 C 167.011719 319.246094 168.734375 326.390625 172.21875 332.773438 C 175.589844 338.671875 180.511719 342.988281 185.925781 344.789062 C 186.945312 345.207031 188.066406 345.328125 189.152344 345.140625 C 190.382812 344.808594 191.335938 343.867188 191.65625 342.671875 C 192.148438 341.007812 191.558594 339.160156 190.980469 337.546875 C 184.550781 319.632812 181.433594 304.070312 175.007812 286.160156 Z M 173.847656 285.34375 "/>
</g>
</defs>
<g id="surface1">
<path style=" stroke:none;fill-rule:nonzero;fill:rgb(100%,72.156863%,72.156863%);fill-opacity:1;" d="M 138.308594 409.429688 C 139.945312 412.160156 142.964844 413.839844 146.230469 413.832031 C 149.496094 413.828125 152.507812 412.136719 154.132812 409.398438 C 155.753906 406.664062 155.742188 403.296875 154.097656 400.570312 C 153.84375 400.15625 153.558594 399.761719 153.238281 399.390625 L 160.917969 346.503906 L 161.148438 344.917969 L 162.710938 334.125 L 162.941406 332.570312 L 162.089844 332.609375 L 147.210938 333.265625 L 143.21875 333.441406 L 142.71875 343.285156 L 139.890625 398.636719 C 136.847656 401.453125 136.191406 405.914062 138.308594 409.429688 Z M 138.308594 409.429688 "/>
<path style=" stroke:none;fill-rule:nonzero;fill:rgb(0%,100%,100%);fill-opacity:1;" d="M 161.105469 345.398438 L 142.210938 343.726562 C 140.171875 343.539062 138.667969 341.796875 138.847656 339.824219 L 142.351562 301.859375 C 142.8125 296.839844 146.0625 292.460938 150.835938 290.425781 C 155.609375 288.390625 161.148438 289.023438 165.296875 292.074219 C 169.449219 295.128906 171.554688 300.117188 170.792969 305.105469 L 165.128906 342.339844 C 164.859375 344.105469 163.296875 345.414062 161.449219 345.414062 C 161.335938 345.414062 161.222656 345.410156 161.105469 345.398438 Z M 161.105469 345.398438 "/>
<path style=" stroke:none;fill-rule:nonzero;fill:rgb(0%,100%,100%);fill-opacity:1;" d="M 146.785156 314.726562 C 142.859375 303.980469 146.816406 292.019531 156.464844 285.464844 C 163.589844 280.753906 173.339844 279.0625 183.839844 291.140625 C 204.839844 315.296875 210.339844 341.867188 210.339844 341.867188 L 167.339844 348.628906 C 167.339844 348.628906 152.714844 331.359375 146.785156 314.726562 Z M 146.785156 314.726562 "/>
<use xlink:href="#surface5" mask="url(#mask0)"/>
<path style=" stroke:none;fill-rule:nonzero;fill:rgb(100%,72.156863%,72.156863%);fill-opacity:1;" d="M 216.332031 586.8125 L 228.589844 586.8125 L 234.421875 541.121094 L 216.328125 541.121094 Z M 216.332031 586.8125 "/>
<path style=" stroke:none;fill-rule:nonzero;fill:rgb(18.431373%,18.039216%,25.490196%);fill-opacity:1;" d="M 252.234375 597.808594 L 213.703125 597.8125 L 213.703125 583.425781 L 237.347656 583.425781 C 245.570312 583.425781 252.234375 589.863281 252.234375 597.808594 Z M 252.234375 597.808594 "/>
<path style=" stroke:none;fill-rule:nonzero;fill:rgb(100%,72.156863%,72.156863%);fill-opacity:1;" d="M 115.535156 576.480469 L 127.179688 580.199219 L 147.558594 538.585938 L 130.378906 533.101562 Z M 115.535156 576.480469 "/>
<path style=" stroke:none;fill-rule:nonzero;fill:rgb(18.431373%,18.039216%,25.490196%);fill-opacity:1;" d="M 146.054688 597.8125 L 109.46875 586.128906 L 114.140625 572.46875 L 136.589844 579.640625 C 144.398438 582.132812 148.632812 590.269531 146.054688 597.808594 Z M 146.054688 597.8125 "/>
<path style=" stroke:none;fill-rule:nonzero;fill:rgb(100%,72.156863%,72.156863%);fill-opacity:1;" d="M 198.335938 249.753906 C 198.335938 262.859375 187.339844 273.484375 173.777344 273.484375 C 160.210938 273.484375 149.214844 262.859375 149.214844 249.753906 C 149.214844 236.648438 160.210938 226.023438 173.777344 226.023438 C 187.339844 226.023438 198.335938 236.648438 198.335938 249.753906 Z M 198.335938 249.753906 "/>
<path style=" stroke:none;fill-rule:nonzero;fill:rgb(18.431373%,18.039216%,25.490196%);fill-opacity:1;" d="M 195.28125 574.09375 L 183.894531 501.488281 C 183.644531 499.890625 182.261719 498.6875 180.589844 498.617188 C 178.917969 498.546875 177.429688 499.628906 177.035156 501.199219 L 159.695312 570.390625 C 159.128906 572.585938 156.925781 574.003906 154.609375 573.660156 L 106.785156 566.234375 C 105.5 566.035156 104.371094 565.308594 103.679688 564.242188 C 102.992188 563.179688 102.8125 561.878906 103.191406 560.675781 L 165.550781 362.035156 C 165.730469 361.46875 165.75 360.867188 165.613281 360.292969 L 163.535156 351.601562 C 163.066406 349.660156 164.027344 347.664062 165.863281 346.757812 C 174.355469 342.570312 195.859375 333.867188 212.09375 343.398438 C 213.160156 344.027344 213.910156 345.050781 214.171875 346.226562 L 262.890625 567.453125 C 263.15625 568.667969 262.875 569.9375 262.109375 570.9375 C 261.34375 571.9375 260.171875 572.574219 258.890625 572.6875 L 200.132812 577.769531 C 199.996094 577.78125 199.863281 577.789062 199.730469 577.789062 C 197.507812 577.785156 195.617188 576.214844 195.28125 574.09375 Z M 195.28125 574.09375 "/>
<path style=" stroke:none;fill-rule:nonzero;fill:rgb(100%,72.156863%,72.156863%);fill-opacity:1;" d="M 234.160156 393.351562 C 235.339844 391.019531 235.394531 388.300781 234.304688 385.929688 C 233.214844 383.558594 231.09375 381.773438 228.511719 381.058594 L 197.816406 320.453125 L 181.984375 331.847656 L 217.015625 387.65625 C 216.039062 392.023438 218.597656 396.40625 222.96875 397.859375 C 227.34375 399.3125 232.148438 397.375 234.160156 393.351562 Z M 234.160156 393.351562 "/>
<path style=" stroke:none;fill-rule:nonzero;fill:rgb(0%,100%,100%);fill-opacity:1;" d="M 180.058594 335.628906 L 160.960938 302.285156 C 158.613281 298.214844 158.550781 293.273438 160.796875 289.148438 C 161.699219 287.4375 162.980469 285.941406 164.542969 284.757812 C 168.652344 281.59375 174.222656 280.855469 179.0625 282.832031 C 182.367188 284.222656 185.03125 286.730469 186.550781 289.886719 L 203.292969 323.5 C 204.148438 325.222656 203.464844 327.292969 201.730469 328.210938 L 185.109375 337.039062 C 183.3125 337.992188 181.054688 337.363281 180.058594 335.628906 Z M 180.058594 335.628906 "/>
<path style=" stroke:none;fill-rule:nonzero;fill:rgb(18.431373%,18.039216%,25.490196%);fill-opacity:1;" d="M 161.582031 229.042969 C 163.621094 228.355469 165.523438 227.328125 167.195312 226.007812 C 168.882812 224.648438 169.714844 222.535156 169.390625 220.433594 C 168.734375 217.597656 165.300781 216.050781 162.316406 216.371094 C 159.328125 216.691406 156.710938 218.371094 154.222656 220.003906 C 152.035156 221.441406 149.777344 222.949219 148.410156 225.140625 C 147.046875 227.332031 146.839844 230.417969 148.652344 232.28125 C 150.433594 234.109375 153.554688 234.136719 155.886719 233.027344 C 158.21875 231.921875 159.945312 229.929688 161.597656 227.992188 Z M 161.582031 229.042969 "/>
<path style=" stroke:none;fill-rule:nonzero;fill:rgb(18.431373%,18.039216%,25.490196%);fill-opacity:1;" d="M 154.867188 220.78125 C 156.148438 214.210938 149.4375 207.960938 142.519531 207.773438 C 135.601562 207.589844 129.289062 212.050781 125.414062 217.59375 C 117.230469 229.304688 118.144531 244.730469 120.585938 258.660156 C 123.03125 272.59375 126.671875 286.96875 122.929688 300.628906 C 118.59375 315.628906 106.105469 327.128906 90.394531 330.59375 C 97.207031 335.40625 106.941406 333.816406 114.375 329.953125 C 130.882812 321.371094 140.691406 302.148438 137.679688 284.269531 C 136.195312 275.453125 131.980469 267.316406 129.15625 258.808594 C 126.332031 250.300781 124.988281 240.679688 129.121094 232.6875 C 133.253906 224.695312 144.546875 219.824219 152.234375 224.792969 Z M 154.867188 220.78125 "/>
<path style=" stroke:none;fill-rule:nonzero;fill:rgb(18.431373%,18.039216%,25.490196%);fill-opacity:1;" d="M 173.195312 259.265625 C 171.839844 255.421875 170.695312 250.503906 175.171875 248.285156 C 177.125 247.371094 179.378906 247.253906 181.421875 247.964844 C 185.632812 249.339844 190.292969 250.496094 194.800781 249.820312 C 198.195312 249.40625 201.269531 247.679688 203.324219 245.035156 C 206.550781 240.527344 205.144531 233.980469 201.304688 229.945312 C 196.476562 225.042969 189.074219 223.421875 182.523438 225.824219 C 177.21875 222.152344 169.886719 221.832031 163.835938 224.195312 C 157.785156 226.558594 152.96875 231.324219 149.726562 236.796875 C 146.816406 241.484375 145.328125 246.867188 145.429688 252.332031 C 145.84375 260.097656 150.152344 267.183594 156.976562 271.316406 C 159.628906 273 163.003906 273.1875 165.839844 271.816406 C 165.839844 271.816406 169.757812 269.691406 171.519531 266.53125 C 172.875 264.109375 173.921875 261.320312 173.195312 259.265625 Z M 173.195312 259.265625 "/>
<path style=" stroke:none;fill-rule:nonzero;fill:rgb(24.705882%,23.921569%,33.72549%);fill-opacity:1;" d="M 382 600 L 1 600 C 0.449219 600 0 599.566406 0 599.035156 C 0 598.5 0.449219 598.066406 1 598.066406 L 382 598.066406 C 382.550781 598.066406 383 598.5 383 599.035156 C 383 599.566406 382.550781 600 382 600 Z M 382 600 "/>
<path style=" stroke:none;fill-rule:nonzero;fill:rgb(24.705882%,23.921569%,33.72549%);fill-opacity:1;" d="M 610.183594 371.359375 L 489.039062 371.359375 C 482.175781 371.351562 476.609375 365.976562 476.601562 359.339844 L 476.601562 171.082031 C 476.609375 164.449219 482.175781 159.074219 489.039062 159.066406 L 610.183594 159.066406 Z M 489.039062 160.996094 C 483.277344 161.003906 478.609375 165.515625 478.601562 171.082031 L 478.601562 359.339844 C 478.609375 364.910156 483.277344 369.421875 489.039062 369.425781 L 608.183594 369.425781 L 608.183594 160.996094 Z M 489.039062 160.996094 "/>
<path style=" stroke:none;fill-rule:nonzero;fill:rgb(24.705882%,23.921569%,33.72549%);fill-opacity:1;" d="M 607.050781 159.066406 L 728.195312 159.066406 C 735.058594 159.074219 740.625 164.449219 740.632812 171.082031 L 740.632812 359.339844 C 740.625 365.976562 735.058594 371.351562 728.195312 371.359375 L 607.050781 371.359375 Z M 607.050781 159.066406 "/>
<path style=" stroke:none;fill-rule:nonzero;fill:rgb(18.431373%,18.039216%,25.490196%);fill-opacity:1;" d="M 518.570312 110.3125 L 519.9375 110.3125 L 519.9375 171.742188 L 518.570312 171.742188 Z M 518.570312 110.3125 "/>
<path style=" stroke:none;fill-rule:nonzero;fill:rgb(18.431373%,18.039216%,25.490196%);fill-opacity:1;" d="M 519.664062 111.632812 C 511.734375 111.632812 505.308594 105.421875 505.308594 97.761719 C 505.308594 90.101562 511.734375 83.890625 519.664062 83.890625 C 527.59375 83.890625 534.023438 90.101562 534.019531 97.761719 C 534.019531 105.421875 527.59375 111.632812 519.664062 111.632812 Z M 519.664062 85.210938 C 512.492188 85.210938 506.675781 90.832031 506.675781 97.761719 C 506.675781 104.695312 512.492188 110.3125 519.664062 110.3125 C 526.839844 110.3125 532.652344 104.695312 532.652344 97.761719 C 532.652344 90.832031 526.839844 85.210938 519.664062 85.210938 Z M 519.664062 85.210938 "/>
<path style=" stroke:none;fill-rule:nonzero;fill:rgb(18.431373%,18.039216%,25.490196%);fill-opacity:1;" d="M 658.46875 27.742188 L 659.835938 27.742188 L 659.835938 169.761719 L 658.46875 169.761719 Z M 658.46875 27.742188 "/>
<path style=" stroke:none;fill-rule:nonzero;fill:rgb(18.431373%,18.039216%,25.490196%);fill-opacity:1;" d="M 659.5625 27.742188 C 651.632812 27.742188 645.207031 21.53125 645.207031 13.871094 C 645.207031 6.210938 651.632812 0 659.5625 0 C 667.492188 0 673.917969 6.210938 673.917969 13.871094 C 673.917969 21.53125 667.492188 27.742188 659.5625 27.742188 Z M 659.5625 1.320312 C 652.386719 1.320312 646.574219 6.941406 646.574219 13.871094 C 646.574219 20.804688 652.386719 26.421875 659.5625 26.421875 C 666.738281 26.421875 672.550781 20.804688 672.550781 13.871094 C 672.550781 6.941406 666.738281 1.320312 659.5625 1.320312 Z M 659.5625 1.320312 "/>
<path style=" stroke:none;fill-rule:nonzero;fill:rgb(0%,100%,100%);fill-opacity:1;" d="M 608.683594 310.203125 C 583.53125 310.203125 563.144531 290.503906 563.144531 266.203125 C 563.144531 241.902344 583.53125 222.203125 608.683594 222.203125 Z M 608.683594 310.203125 "/>
<path style=" stroke:none;fill-rule:nonzero;fill:rgb(90.196078%,90.196078%,90.196078%);fill-opacity:1;" d="M 608.683594 222.203125 C 633.835938 222.203125 654.222656 241.902344 654.222656 266.203125 C 654.222656 290.503906 633.835938 310.203125 608.683594 310.203125 Z M 608.683594 222.203125 "/>
<path style=" stroke:none;fill-rule:nonzero;fill:rgb(24.705882%,23.921569%,33.72549%);fill-opacity:1;" d="M 766.613281 396.136719 L 452.121094 396.136719 C 445.707031 396.128906 440.507812 391.105469 440.5 384.90625 L 440.5 144.859375 C 440.507812 138.660156 445.707031 133.636719 452.121094 133.628906 L 766.613281 133.628906 C 773.027344 133.636719 778.226562 138.660156 778.234375 144.859375 L 778.234375 384.90625 C 778.226562 391.105469 773.027344 396.128906 766.613281 396.136719 Z M 452.121094 134.949219 C 446.460938 134.957031 441.875 139.390625 441.867188 144.859375 L 441.867188 384.90625 C 441.875 390.375 446.460938 394.808594 452.121094 394.8125 L 766.613281 394.8125 C 772.273438 394.808594 776.859375 390.375 776.867188 384.90625 L 776.867188 144.859375 C 776.859375 139.390625 772.273438 134.957031 766.613281 134.949219 Z M 452.121094 134.949219 "/>
<path style=" stroke:none;fill-rule:nonzero;fill:rgb(18.431373%,18.039216%,25.490196%);fill-opacity:1;" d="M 587.570312 71.496094 L 588.9375 71.496094 L 588.9375 240.34375 L 587.570312 240.34375 Z M 587.570312 71.496094 "/>
<path style=" stroke:none;fill-rule:nonzero;fill:rgb(18.431373%,18.039216%,25.490196%);fill-opacity:1;" d="M 588.664062 72.019531 C 580.734375 72.019531 574.308594 65.808594 574.308594 58.148438 C 574.308594 50.488281 580.734375 44.277344 588.664062 44.277344 C 596.59375 44.277344 603.023438 50.488281 603.019531 58.148438 C 603.019531 65.808594 596.59375 72.019531 588.664062 72.019531 Z M 588.664062 45.597656 C 581.492188 45.597656 575.675781 51.21875 575.675781 58.148438 C 575.675781 65.078125 581.492188 70.699219 588.664062 70.699219 C 595.839844 70.699219 601.652344 65.078125 601.652344 58.148438 C 601.652344 51.21875 595.839844 45.597656 588.664062 45.597656 Z M 588.664062 45.597656 "/>
<path style=" stroke:none;fill-rule:nonzero;fill:rgb(24.705882%,23.921569%,33.72549%);fill-opacity:1;" d="M 508.5 351.691406 C 508.5 356.492188 504.46875 360.386719 499.5 360.386719 C 494.53125 360.386719 490.5 356.492188 490.5 351.691406 C 490.5 346.886719 494.53125 342.996094 499.5 342.996094 C 504.46875 342.996094 508.5 346.886719 508.5 351.691406 Z M 508.5 351.691406 "/>
<path style=" stroke:none;fill-rule:nonzero;fill:rgb(90.196078%,90.196078%,90.196078%);fill-opacity:1;" d="M 729.5 351.691406 C 729.5 356.492188 725.46875 360.386719 720.5 360.386719 C 715.53125 360.386719 711.5 356.492188 711.5 351.691406 C 711.5 346.886719 715.53125 342.996094 720.5 342.996094 C 725.46875 342.996094 729.5 346.886719 729.5 351.691406 Z M 729.5 351.691406 "/>
<path style=" stroke:none;fill-rule:nonzero;fill:rgb(24.705882%,23.921569%,33.72549%);fill-opacity:1;" d="M 508.5 178.742188 C 508.5 183.546875 504.46875 187.441406 499.5 187.441406 C 494.53125 187.441406 490.5 183.546875 490.5 178.742188 C 490.5 173.941406 494.53125 170.046875 499.5 170.046875 C 504.46875 170.046875 508.5 173.941406 508.5 178.742188 Z M 508.5 178.742188 "/>
<path style=" stroke:none;fill-rule:nonzero;fill:rgb(90.196078%,90.196078%,90.196078%);fill-opacity:1;" d="M 729.5 178.742188 C 729.5 183.546875 725.46875 187.441406 720.5 187.441406 C 715.53125 187.441406 711.5 183.546875 711.5 178.742188 C 711.5 173.941406 715.53125 170.046875 720.5 170.046875 C 725.46875 170.046875 729.5 173.941406 729.5 178.742188 Z M 729.5 178.742188 "/>
<path style=" stroke:none;fill-rule:nonzero;fill:rgb(94.901961%,94.901961%,94.901961%);fill-opacity:1;" d="M 529.234375 102.386719 C 529.234375 109.683594 523.113281 115.597656 515.5625 115.597656 C 508.011719 115.597656 501.890625 109.683594 501.890625 102.386719 C 501.890625 95.089844 508.011719 89.175781 515.5625 89.175781 C 523.113281 89.175781 529.234375 95.089844 529.234375 102.386719 Z M 529.234375 102.386719 "/>
<path style=" stroke:none;fill-rule:nonzero;fill:rgb(24.705882%,23.921569%,33.72549%);fill-opacity:1;" d="M 669.132812 18.496094 C 669.132812 25.792969 663.011719 31.707031 655.460938 31.707031 C 647.910156 31.707031 641.785156 25.792969 641.785156 18.496094 C 641.785156 11.199219 647.910156 5.285156 655.460938 5.285156 C 663.011719 5.285156 669.132812 11.199219 669.132812 18.496094 Z M 669.132812 18.496094 "/>
<path style=" stroke:none;fill-rule:nonzero;fill:rgb(0%,100%,100%);fill-opacity:1;" d="M 598.234375 62.773438 C 598.234375 70.070312 592.113281 75.984375 584.5625 75.984375 C 577.011719 75.984375 570.890625 70.070312 570.890625 62.773438 C 570.890625 55.476562 577.011719 49.5625 584.5625 49.5625 C 592.113281 49.5625 598.234375 55.476562 598.234375 62.773438 Z M 598.234375 62.773438 "/>
</g>
</svg>
